<?xml version="1.0" encoding="UTF-8"?>
<svg id="Calque_1" data-name="Calque 1" xmlns="http://www.w3.org/2000/svg" viewBox="0 0 74.6 31.95">
  <defs>
    <style>
      .cls-1 {
        fill: #ef787e;
      }

      .cls-2 {
        fill: #fbd785;
      }
    </style>
  </defs>
  <path class="cls-2" d="m9.53,10.14c.81.4,1.53.89,2.14,1.48.61.59,1.16,1.26,1.63,2.02.43.73.8,1.48,1.1,2.26.3.78.47,1.6.52,2.48.02.58.01,1.15-.04,1.71-.05.56-.15,1.1-.32,1.61s-.38,1-.66,1.45c-.28.46-.64.87-1.08,1.24-.64.51-1.31.94-2.01,1.3-.7.35-1.46.61-2.27.76-.84.17-1.61.07-2.32-.32-.18-.1-.33-.25-.45-.45-.11-.2-.21-.44-.29-.71s-.15-.56-.19-.87-.08-.63-.11-.95c-.1-.93-.25-1.74-.46-2.45s-.49-1.35-.82-1.93c-.34-.58-.73-1.13-1.19-1.65-.46-.52-.99-1.06-1.58-1.62-.14-.16-.28-.3-.43-.43-.15-.13-.27-.28-.37-.45-.17-.28-.28-.56-.31-.86-.04-.29,0-.57.09-.84.09-.26.25-.51.46-.73.22-.23.49-.42.81-.58.64-.31,1.29-.62,1.96-.93.67-.31,1.35-.56,2.04-.75.69-.18,1.38-.27,2.08-.26s1.39.16,2.08.47Zm2.17,7.89c-.06-.42-.17-.84-.34-1.24s-.38-.79-.63-1.15c-.25-.36-.53-.69-.84-.98-.31-.3-.63-.56-.97-.78-.66-.42-1.38-.63-2.14-.63-.32,0-.56.06-.74.18-.18.12-.29.26-.34.44s-.04.37.03.58.19.41.37.59c.3.38.56.76.78,1.13s.41.75.58,1.12c.17.38.33.76.48,1.16.15.4.31.82.48,1.25.19.54.42.92.67,1.15.25.23.51.34.77.34.26,0,.52-.1.77-.29.25-.19.47-.44.65-.73.18-.3.31-.64.39-1.02.08-.38.09-.76.04-1.14Z"/>
  <path class="cls-2" d="m22.81,21.59c.39-.02.71.03.96.17.25.14.42.33.52.57.1.24.13.5.1.8-.03.3-.11.58-.25.86-.26.48-.59.78-.99.88-.4.1-.81,0-1.24-.3-.5-.35-.9-.53-1.18-.55-.28-.02-.51.08-.67.28s-.29.49-.37.86c-.08.36-.16.75-.23,1.16-.07.34-.03.57.12.7.15.13.35.21.59.23.24.03.49.02.76-.02.27-.04.48-.07.65-.08.34-.04.68-.04,1.02-.02.34.02.64.1.89.23.26.13.46.31.6.56s.19.56.13.96c-.12.8-.47,1.49-1.05,2.08-.23.22-.48.37-.73.45-.25.09-.53.13-.83.12-.52,0-1.01-.1-1.48-.28-.46-.17-.94-.34-1.42-.49-.37-.12-.75-.25-1.15-.38-.4-.13-.79-.21-1.18-.24-.66-.11-1.14-.34-1.42-.69-.29-.34-.38-.84-.28-1.51.09-.46.22-.9.39-1.32.17-.42.36-.84.56-1.26.36-.75.65-1.51.87-2.28.23-.77.42-1.55.58-2.34.33-1.5.39-3.01.17-4.54-.05-.3-.03-.6.04-.91.07-.3.19-.57.35-.79.16-.22.36-.38.61-.49s.53-.12.84-.04c.83.3,1.67.48,2.51.56.84.08,1.7.1,2.58.06.5-.13.95-.14,1.33,0,.39.13.7.32.94.59.24.27.41.59.52.96.1.37.13.74.09,1.1-.04.36-.17.7-.38,1.01-.21.31-.51.53-.88.67-.26.1-.51.14-.76.14-.25,0-.49-.05-.73-.12-.24-.07-.48-.16-.71-.26-.23-.11-.44-.21-.65-.32-.61-.31-1.06-.41-1.36-.3-.3.11-.54.49-.72,1.15-.14.54-.22.99-.25,1.34-.02.35.03.62.18.8.14.18.38.29.7.32s.76,0,1.32-.08Z"/>
  <path class="cls-2" d="m34.26,12.81c-.11-.45-.12-.91-.03-1.37.09-.46.25-.87.5-1.22.25-.35.56-.63.95-.84.39-.21.83-.29,1.32-.25.76.07,1.37.34,1.82.82.45.48.7,1.12.74,1.92.03.57-.01,1.21-.11,1.91-.1.7-.24,1.43-.43,2.18-.19.75-.4,1.52-.65,2.29-.25.77-.5,1.53-.77,2.26-.27.73-.54,1.43-.81,2.1-.27.67-.53,1.27-.77,1.8-.21.47-.49.83-.82,1.1-.33.27-.69.45-1.08.55-.39.1-.78.12-1.17.06-.39-.06-.75-.18-1.08-.37-.33-.19-.6-.43-.83-.74-.23-.31-.36-.65-.4-1.04-.11-1.57-.36-3.08-.75-4.51-.39-1.43-.97-2.84-1.73-4.23-.17-.31-.35-.63-.52-.96-.17-.33-.35-.68-.52-1.04-.13-.29-.2-.59-.19-.9s.07-.6.18-.88.27-.53.48-.76c.21-.23.45-.4.73-.52.39-.17.8-.19,1.24-.05s.77.41,1,.81c.25.4.46.83.62,1.3.16.47.29.94.4,1.42.11.48.19.96.25,1.44.06.48.11.94.15,1.38.11,1.05.23,1.86.36,2.43.13.57.28.95.43,1.14.15.19.3.22.45.09.15-.13.29-.38.43-.73s.26-.8.37-1.33c.11-.53.19-1.1.25-1.7s.09-1.21.1-1.83c0-.62-.03-1.2-.11-1.73Z"/>
  <path class="cls-1" d="m45.18,1.41c.44-.44.96-.79,1.55-1.05.59-.26,1.27-.38,2.04-.36,1.1.03,1.95.39,2.56,1.1.61.71.84,1.61.68,2.7-.16.8-.43,1.59-.8,2.36-.37.77-.76,1.55-1.19,2.35s-.84,1.59-1.25,2.38c-.41.8-.74,1.6-.99,2.41-.3.93-.54,1.85-.73,2.76s-.41,1.81-.68,2.7c-.12.37-.31.69-.56.96-.25.27-.54.47-.85.6-.31.13-.65.2-1.01.19s-.72-.1-1.08-.29c-.45-.27-.77-.66-.95-1.17-.18-.51-.28-1.01-.29-1.49-.04-1.22-.03-2.59.02-4.11.05-1.52.19-3.03.43-4.53.24-1.5.6-2.92,1.09-4.25.48-1.33,1.15-2.42,2-3.25Zm.5,23.84c-.27.36-.59.64-.96.84-.37.2-.76.32-1.18.35-.41.04-.83-.01-1.24-.14-.41-.13-.8-.35-1.15-.66-.49-.41-.73-.91-.73-1.52,0-.6.28-1.18.83-1.73.33-.31.71-.51,1.15-.61.44-.1.87-.11,1.31-.03.43.08.84.23,1.23.45.38.22.68.49.89.81.21.32.32.67.33,1.06,0,.39-.15.78-.47,1.17Z"/>
  <path class="cls-2" d="m60.89,18.89c.11.66.27,1.3.46,1.91s.4,1.25.6,1.88c.15.47.31,1.01.49,1.61.17.6.3,1.21.37,1.83.08.62.07,1.22,0,1.79-.08.57-.28,1.06-.61,1.47-.23.29-.51.5-.83.63-.32.14-.65.2-1,.2-.35,0-.7-.07-1.06-.22-.36-.14-.68-.36-.98-.65-.39-.4-.78-.81-1.15-1.24-.37-.43-.75-.85-1.14-1.27-.28-.3-.54-.57-.8-.81-.26-.23-.47-.37-.64-.41s-.26.05-.3.27.05.62.24,1.21c.14.36.27.72.4,1.07.13.35.2.72.23,1.11,0,.45-.08.86-.25,1.22-.18.36-.41.66-.7.89-.29.23-.61.39-.96.48s-.69.09-1.01,0c-.33-.08-.62-.26-.88-.53-.26-.27-.45-.66-.57-1.15-.12-.52-.2-1.05-.24-1.59-.04-.54-.06-1.09-.08-1.64-.05-1.08-.19-2.11-.44-3.09-.25-.98-.55-1.96-.9-2.94-.14-.38-.3-.83-.47-1.35-.17-.52-.27-1.03-.3-1.53-.03-.5.05-.95.24-1.36.19-.41.57-.7,1.13-.87.54-.17.97-.26,1.31-.28.34-.02.62.03.84.16.22.13.41.35.55.65.15.3.3.7.45,1.2.14.42.3.89.49,1.41.19.52.4,1.03.65,1.54.24.51.51.99.82,1.44.3.45.63.82.99,1.11.27.22.53.36.79.39.25.04.45-.03.6-.21.14-.18.21-.48.19-.9-.02-.42-.15-.99-.39-1.7-.13-.38-.26-.76-.4-1.14s-.26-.76-.37-1.14c-.11-.38-.2-.76-.28-1.15-.08-.39-.11-.77-.1-1.16,0-.55.13-1.01.39-1.38.26-.38.58-.65.97-.82.38-.17.79-.23,1.22-.18s.81.22,1.16.51c.25.21.46.52.61.93.15.4.26.83.35,1.28s.15.9.19,1.34c.04.44.09.82.13,1.14Z"/>
  <path class="cls-2" d="m71.11,14.93c.38-.09.71-.08.97.02.27.1.47.26.6.48.13.22.21.48.23.77.02.3-.02.59-.11.89-.18.52-.46.86-.84,1.03-.38.17-.8.14-1.28-.09-.55-.26-.97-.38-1.25-.35-.28.03-.49.16-.62.39s-.2.53-.22.9c-.02.37-.03.77-.04,1.18-.02.35.06.57.23.67.17.1.38.15.62.14.24-.01.49-.06.75-.14.26-.08.46-.15.63-.18.33-.09.66-.15,1-.18.34-.03.64,0,.92.08.27.08.5.24.68.45s.27.53.28.93c0,.8-.23,1.55-.7,2.23-.2.25-.41.44-.64.57-.23.13-.5.21-.8.25-.52.07-1.02.06-1.5-.03-.49-.1-.98-.18-1.48-.25-.38-.06-.78-.12-1.19-.19-.41-.06-.81-.08-1.21-.05-.67,0-1.18-.16-1.51-.45-.34-.29-.51-.77-.52-1.44.01-.47.07-.92.17-1.37.1-.45.22-.89.35-1.33.23-.8.4-1.59.5-2.4.1-.8.16-1.6.2-2.4.08-1.53-.1-3.03-.56-4.51-.09-.29-.13-.59-.11-.9.02-.31.09-.59.22-.83.12-.24.3-.44.52-.59s.5-.21.82-.18c.87.16,1.72.21,2.57.15.84-.06,1.69-.18,2.55-.35.47-.21.91-.29,1.32-.22.4.06.74.21,1.03.43.28.23.5.51.67.86.16.35.25.7.27,1.07.01.36-.06.71-.22,1.06-.16.34-.41.61-.76.81-.24.14-.48.22-.73.26-.24.03-.49.03-.74,0-.25-.03-.5-.08-.74-.15-.24-.07-.47-.14-.69-.21-.65-.21-1.11-.23-1.39-.07-.27.16-.45.57-.52,1.25-.05.56-.06,1.01-.03,1.36.03.35.13.6.3.76.17.16.42.22.74.21s.75-.12,1.29-.3Z"/>
</svg>