<svg width="338" height="338" viewBox="0 0 338 338" fill="none" xmlns="http://www.w3.org/2000/svg">
<path d="M337.5 2.95052e-05C288.2 25.1 238.8 50.1 186 75.1C133.2 100.1 76.8 125 45.2 168.7C13.6 212.5 6.80001 275 0 337.5L337.5 337.5L337.5 2.95052e-05Z" fill="#99669A"/>
<path d="M337.5 67.5C298 87.5 258.6 107.6 216.3 127.6C174 147.6 128.9 167.5 103.7 202.5C78.4 237.5 73 287.5 67.5 337.5L337.5 337.5L337.5 67.5Z" fill="#D16991"/>
<path d="M337.5 135C307.9 150 278.3 165.1 246.6 180.1C214.9 195.1 181.1 210 162.1 236.2C143.2 262.5 139.1 300 135 337.5L337.5 337.5L337.5 135Z" fill="#F77874"/>
<path d="M337.5 202.5C317.8 212.5 298 222.5 276.9 232.5C255.8 242.5 233.2 252.5 220.6 270C208 287.5 205.2 312.5 202.5 337.5L337.5 337.5L337.5 202.5Z" fill="#FF994E"/>
<path d="M337.5 270C327.6 275 317.8 280 307.2 285C296.6 290 285.4 295 279 303.7C272.7 312.5 271.4 325 270 337.5L337.5 337.5L337.5 270Z" fill="#FBAE3C"/>
</svg>
