<svg width="338" height="338" viewBox="0 0 338 338" fill="none" xmlns="http://www.w3.org/2000/svg">
<path d="M0 337.5C48.3 310.6 96.5 283.7 149.5 258.9C202.5 234.2 260.2 211.6 292.3 168.8C324.4 125.9 331 63 337.5 2.95052e-05L2.95052e-05 0L0 337.5Z" fill="#99669A"/>
<path d="M0 270C38.6 248.5 77.2 227 119.6 207.2C162 187.3 208.1 169.2 233.8 135C259.5 100.8 264.8 50.4 270 2.36041e-05L2.36041e-05 0L0 270Z" fill="#D16991"/>
<path d="M0 202.5C29 186.4 57.9 170.2 89.7 155.4C121.5 140.5 156.1 126.9 175.4 101.3C194.6 75.6 198.6 37.8 202.5 1.77031e-05L1.77031e-05 0L0 202.5Z" fill="#F77874"/>
<path d="M0 135C19.3 124.2 38.6 113.5 59.8 103.6C81 93.7 104.1 84.6 116.9 67.5C129.8 50.4 132.4 25.2 135 1.18021e-05L1.18021e-05 0L0 135Z" fill="#FF994E"/>
<path d="M0 67.5C9.7 62.1 19.3 56.7 29.9 51.8C40.5 46.8 52 42.3 58.5 33.8C64.9 25.2 66.2 12.6 67.5 5.90104e-06L5.90104e-06 0L0 67.5Z" fill="#FBAE3C"/>
</svg>
