<svg width="400" height="210" viewBox="0 0 400 210" fill="none" xmlns="http://www.w3.org/2000/svg">
<g filter="url(#filter0_f_15_66)">
<ellipse cx="200" cy="105" rx="136" ry="41" fill="black" fill-opacity="0.3"/>
</g>
<path d="M119.806 84.3838C121.726 86.5598 123.22 88.9065 124.286 91.4238C125.396 93.8985 126.185 96.5438 126.654 99.3598C127.038 102.048 127.188 104.736 127.102 107.424C127.06 110.069 126.569 112.714 125.63 115.36C124.99 117.109 124.244 118.794 123.39 120.416C122.58 121.994 121.62 123.445 120.51 124.768C119.401 126.09 118.142 127.264 116.734 128.288C115.369 129.269 113.812 130.037 112.062 130.592C109.545 131.317 107.028 131.786 104.51 132C102.036 132.17 99.4971 131.978 96.8944 131.424C94.2064 130.912 92.0517 129.653 90.4304 127.648C90.0037 127.136 89.7477 126.517 89.6624 125.792C89.5771 125.024 89.5771 124.192 89.6624 123.296C89.7477 122.4 89.9184 121.461 90.1744 120.48C90.4304 119.498 90.7077 118.517 91.0064 117.536C91.8597 114.677 92.3931 112.074 92.6064 109.728C92.8624 107.381 92.8411 105.141 92.5424 103.008C92.2864 100.874 91.7957 98.7625 91.0704 96.6718C90.3451 94.5811 89.4491 92.3411 88.3824 89.9518C88.1691 89.3118 87.9131 88.7145 87.6144 88.1598C87.3584 87.6051 87.1877 87.0078 87.1024 86.3678C86.9317 85.3438 86.9744 84.3838 87.2304 83.4878C87.4864 82.5491 87.9131 81.7598 88.5104 81.1198C89.1077 80.4371 89.8544 79.9038 90.7504 79.5198C91.6891 79.0931 92.7344 78.8371 93.8864 78.7518C96.1477 78.6238 98.4517 78.5171 100.798 78.4318C103.188 78.3038 105.513 78.3891 107.774 78.6878C110.036 78.9865 112.19 79.5838 114.238 80.4798C116.286 81.3331 118.142 82.6345 119.806 84.3838ZM116.542 110.368C116.884 109.045 117.054 107.68 117.054 106.272C117.054 104.864 116.905 103.477 116.606 102.112C116.308 100.746 115.881 99.4451 115.326 98.2078C114.772 96.9278 114.132 95.7545 113.406 94.6878C111.956 92.6398 110.1 91.1465 107.838 90.2078C106.9 89.8238 106.089 89.6958 105.406 89.8238C104.766 89.9518 104.254 90.2505 103.87 90.7198C103.529 91.1891 103.316 91.7865 103.23 92.5118C103.188 93.1945 103.316 93.9198 103.614 94.6878C104.041 96.1811 104.34 97.6105 104.51 98.9758C104.724 100.341 104.852 101.685 104.894 103.008C104.937 104.33 104.937 105.674 104.894 107.04C104.852 108.405 104.809 109.834 104.766 111.328C104.681 113.162 104.873 114.57 105.342 115.552C105.812 116.533 106.43 117.194 107.198 117.536C107.966 117.834 108.841 117.856 109.822 117.6C110.804 117.344 111.742 116.896 112.638 116.256C113.534 115.573 114.324 114.72 115.006 113.696C115.732 112.672 116.244 111.562 116.542 110.368Z" fill="#FBAE3C"/>
<path d="M152.42 100.128C153.615 99.7438 154.639 99.6798 155.492 99.9358C156.388 100.149 157.071 100.597 157.54 101.28C158.052 101.92 158.372 102.709 158.5 103.648C158.671 104.586 158.65 105.546 158.436 106.528C158.01 108.234 157.22 109.408 156.068 110.048C154.916 110.688 153.551 110.709 151.972 110.112C150.138 109.429 148.772 109.173 147.876 109.344C146.98 109.514 146.362 109.984 146.02 110.752C145.679 111.52 145.53 112.501 145.572 113.696C145.615 114.89 145.679 116.149 145.764 117.472C145.807 118.581 146.106 119.285 146.66 119.584C147.258 119.84 147.94 119.925 148.708 119.84C149.476 119.712 150.244 119.477 151.012 119.136C151.823 118.794 152.484 118.538 152.996 118.368C154.02 117.984 155.066 117.706 156.132 117.536C157.199 117.322 158.18 117.322 159.076 117.536C159.972 117.706 160.74 118.112 161.38 118.752C162.02 119.392 162.404 120.352 162.532 121.632C162.788 124.192 162.255 126.624 160.932 128.928C160.378 129.781 159.738 130.442 159.012 130.912C158.33 131.381 157.519 131.722 156.58 131.936C154.959 132.32 153.359 132.426 151.78 132.256C150.202 132.085 148.602 131.957 146.98 131.872C145.743 131.786 144.463 131.701 143.14 131.616C141.818 131.53 140.538 131.594 139.3 131.808C137.167 131.978 135.524 131.658 134.372 130.848C133.22 129.994 132.538 128.501 132.324 126.368C132.239 124.874 132.282 123.402 132.452 121.952C132.666 120.501 132.922 119.05 133.22 117.6C133.732 114.997 134.031 112.416 134.116 109.856C134.202 107.253 134.18 104.672 134.052 102.112C133.882 97.2051 132.858 92.4691 130.98 87.9038C130.596 87.0078 130.383 86.0691 130.34 85.0878C130.34 84.0638 130.49 83.1465 130.788 82.3358C131.13 81.5251 131.642 80.8638 132.324 80.3518C133.007 79.7971 133.86 79.5198 134.884 79.5198C137.7 79.7758 140.431 79.6905 143.076 79.2638C145.764 78.8371 148.452 78.2185 151.14 77.4078C152.591 76.5971 153.956 76.2345 155.236 76.3198C156.559 76.4051 157.69 76.7678 158.628 77.4078C159.61 78.0478 160.399 78.9011 160.996 79.9678C161.636 81.0345 162.02 82.1438 162.148 83.2958C162.319 84.4478 162.191 85.5998 161.764 86.7518C161.38 87.8611 160.655 88.7785 159.588 89.5038C158.863 90.0158 158.116 90.3571 157.348 90.5278C156.58 90.6985 155.791 90.7838 154.98 90.7838C154.17 90.7411 153.359 90.6558 152.548 90.5278C151.78 90.3571 151.034 90.1865 150.308 90.0158C148.175 89.5465 146.682 89.6105 145.828 90.2078C145.018 90.7625 144.591 92.1278 144.548 94.3038C144.548 96.0958 144.634 97.5465 144.804 98.6558C145.018 99.7651 145.402 100.554 145.956 101.024C146.554 101.45 147.364 101.6 148.388 101.472C149.412 101.301 150.756 100.853 152.42 100.128Z" fill="#FBAE3C"/>
<path d="M189.968 89.6318C189.627 88.1811 189.584 86.7305 189.84 85.2798C190.139 83.7865 190.672 82.4851 191.44 81.3758C192.251 80.2238 193.275 79.3278 194.512 78.6878C195.75 78.0051 197.158 77.7278 198.736 77.8558C201.168 78.0691 203.11 78.9438 204.56 80.4798C206.011 82.0158 206.8 84.0638 206.928 86.6238C207.014 88.4585 206.886 90.5065 206.544 92.7678C206.246 94.9865 205.798 97.3118 205.2 99.7438C204.603 102.133 203.899 104.565 203.088 107.04C202.32 109.514 201.51 111.925 200.656 114.272C199.803 116.618 198.928 118.858 198.032 120.992C197.179 123.125 196.368 125.045 195.6 126.752C194.918 128.245 194.043 129.418 192.976 130.272C191.91 131.125 190.758 131.701 189.52 132C188.283 132.341 187.024 132.405 185.744 132.192C184.507 132.021 183.355 131.637 182.288 131.04C181.264 130.442 180.39 129.653 179.664 128.672C178.939 127.69 178.512 126.581 178.384 125.344C178.043 120.309 177.232 115.509 175.952 110.944C174.715 106.336 172.88 101.813 170.448 97.3758C169.894 96.3945 169.339 95.3705 168.784 94.3038C168.23 93.2371 167.675 92.1278 167.12 90.9758C166.694 90.0371 166.48 89.0771 166.48 88.0958C166.523 87.1145 166.715 86.1758 167.056 85.2798C167.44 84.3838 167.952 83.5731 168.592 82.8478C169.275 82.1225 170.064 81.5678 170.96 81.1838C172.198 80.6291 173.52 80.5865 174.928 81.0558C176.336 81.4825 177.403 82.3358 178.128 83.6158C178.939 84.8958 179.6 86.2825 180.112 87.7758C180.624 89.2691 181.051 90.7838 181.392 92.3198C181.734 93.8558 181.99 95.3918 182.16 96.9278C182.374 98.4638 182.544 99.9358 182.672 101.344C183.014 104.714 183.398 107.317 183.824 109.152C184.251 110.944 184.699 112.16 185.168 112.8C185.68 113.397 186.171 113.482 186.64 113.056C187.11 112.629 187.558 111.861 187.984 110.752C188.454 109.6 188.859 108.17 189.2 106.464C189.542 104.757 189.798 102.944 189.968 101.024C190.182 99.1038 190.288 97.1625 190.288 95.1998C190.331 93.1945 190.224 91.3385 189.968 89.6318Z" fill="#FBAE3C"/>
<path d="M219.415 73.5802C220.311 72.2362 221.431 71.0882 222.775 70.1362C224.175 69.1282 225.855 68.4562 227.815 68.1202C230.615 67.6162 232.967 68.1202 234.871 69.6322C236.831 71.0882 237.895 73.2442 238.063 76.1002C238.063 78.2282 237.783 80.3842 237.223 82.5682C236.719 84.6962 236.131 86.8802 235.459 89.1202C234.787 91.3602 234.143 93.6002 233.527 95.8402C232.911 98.0802 232.491 100.292 232.267 102.476C231.987 104.996 231.847 107.46 231.847 109.868C231.847 112.276 231.735 114.684 231.511 117.092C231.399 118.1 231.091 119.024 230.587 119.864C230.083 120.648 229.467 121.292 228.739 121.796C228.011 122.3 227.171 122.636 226.219 122.804C225.323 122.972 224.371 122.916 223.363 122.636C222.075 122.188 221.067 121.376 220.339 120.2C219.611 118.968 219.107 117.736 218.827 116.504C218.099 113.424 217.399 109.952 216.727 106.088C216.055 102.168 215.635 98.2482 215.467 94.3282C215.299 90.3522 215.467 86.5442 215.971 82.9042C216.531 79.2642 217.679 76.1562 219.415 73.5802ZM233.107 133.976C232.603 135.04 231.931 135.936 231.091 136.664C230.251 137.336 229.299 137.812 228.235 138.092C227.227 138.428 226.163 138.54 225.043 138.428C223.923 138.316 222.831 137.952 221.767 137.336C220.311 136.552 219.415 135.404 219.079 133.892C218.799 132.324 219.219 130.7 220.339 129.02C221.011 128.068 221.879 127.368 222.943 126.92C224.007 126.416 225.099 126.164 226.219 126.164C227.395 126.108 228.515 126.276 229.579 126.668C230.699 127.004 231.595 127.536 232.267 128.264C232.995 128.936 233.471 129.776 233.695 130.784C233.919 131.736 233.723 132.8 233.107 133.976Z" fill="#F77874"/>
<path d="M285.723 97.2478C285.595 99.3811 285.616 101.493 285.787 103.584C285.958 105.632 286.128 107.722 286.299 109.856C286.427 111.434 286.534 113.226 286.619 115.232C286.747 117.237 286.704 119.242 286.491 121.248C286.278 123.21 285.83 125.066 285.147 126.816C284.507 128.522 283.526 129.888 282.203 130.912C281.264 131.637 280.24 132.085 279.131 132.256C278.064 132.469 276.976 132.448 275.867 132.192C274.8 131.936 273.755 131.466 272.731 130.784C271.75 130.058 270.896 129.141 270.171 128.032C269.232 126.496 268.336 124.938 267.483 123.36C266.63 121.738 265.755 120.138 264.859 118.56C264.219 117.408 263.579 116.384 262.939 115.488C262.299 114.549 261.723 113.973 261.211 113.76C260.742 113.504 260.379 113.717 260.123 114.4C259.867 115.04 259.824 116.341 259.995 118.304C260.166 119.541 260.315 120.757 260.443 121.952C260.614 123.104 260.592 124.298 260.379 125.536C260.08 126.944 259.526 128.16 258.715 129.184C257.904 130.165 256.966 130.912 255.899 131.424C254.832 131.936 253.723 132.192 252.571 132.192C251.419 132.234 250.352 132.021 249.371 131.552C248.432 131.04 247.643 130.272 247.003 129.248C246.406 128.181 246.107 126.837 246.107 125.216C246.107 123.509 246.235 121.802 246.491 120.096C246.79 118.389 247.11 116.661 247.451 114.912C248.091 111.498 248.368 108.192 248.283 104.992C248.24 101.749 248.027 98.4638 247.643 95.1358C247.472 93.8558 247.302 92.3411 247.131 90.5918C247.003 88.8425 247.067 87.1785 247.323 85.5998C247.579 84.0211 248.155 82.6771 249.051 81.5678C249.947 80.4158 251.334 79.7758 253.211 79.6478C255.003 79.5198 256.432 79.5411 257.499 79.7118C258.566 79.8825 259.398 80.2665 259.995 80.8638C260.592 81.4185 260.998 82.2291 261.211 83.2958C261.467 84.3198 261.659 85.6638 261.787 87.3278C261.915 88.7358 262.086 90.3145 262.299 92.0638C262.512 93.8131 262.811 95.5838 263.195 97.3758C263.579 99.1251 264.07 100.81 264.667 102.432C265.307 104.053 266.075 105.44 266.971 106.592C267.654 107.488 268.379 108.085 269.147 108.384C269.915 108.682 270.576 108.618 271.131 108.192C271.728 107.722 272.155 106.826 272.411 105.504C272.667 104.181 272.667 102.325 272.411 99.9358C272.283 98.6558 272.134 97.3758 271.963 96.0958C271.835 94.8158 271.728 93.5571 271.643 92.3198C271.6 91.0398 271.6 89.7811 271.643 88.5438C271.686 87.2638 271.856 86.0265 272.155 84.8318C272.539 83.1251 273.264 81.7811 274.331 80.7998C275.44 79.8185 276.656 79.1998 277.979 78.9438C279.302 78.6878 280.603 78.7945 281.883 79.2638C283.206 79.7331 284.294 80.5438 285.147 81.6958C285.787 82.5491 286.192 83.6585 286.363 85.0238C286.534 86.3891 286.576 87.8185 286.491 89.3118C286.448 90.7625 286.32 92.1918 286.107 93.5998C285.936 95.0078 285.808 96.2238 285.723 97.2478Z" fill="#FBAE3C"/>
<path d="M311.983 100.128C313.178 99.7438 314.202 99.6798 315.055 99.9358C315.951 100.149 316.634 100.597 317.103 101.28C317.615 101.92 317.935 102.709 318.063 103.648C318.234 104.586 318.212 105.546 317.999 106.528C317.572 108.234 316.783 109.408 315.631 110.048C314.479 110.688 313.114 110.709 311.535 110.112C309.7 109.429 308.335 109.173 307.439 109.344C306.543 109.514 305.924 109.984 305.583 110.752C305.242 111.52 305.092 112.501 305.135 113.696C305.178 114.89 305.242 116.149 305.327 117.472C305.37 118.581 305.668 119.285 306.223 119.584C306.82 119.84 307.503 119.925 308.271 119.84C309.039 119.712 309.807 119.477 310.575 119.136C311.386 118.794 312.047 118.538 312.559 118.368C313.583 117.984 314.628 117.706 315.695 117.536C316.762 117.322 317.743 117.322 318.639 117.536C319.535 117.706 320.303 118.112 320.943 118.752C321.583 119.392 321.967 120.352 322.095 121.632C322.351 124.192 321.818 126.624 320.495 128.928C319.94 129.781 319.3 130.442 318.575 130.912C317.892 131.381 317.082 131.722 316.143 131.936C314.522 132.32 312.922 132.426 311.343 132.256C309.764 132.085 308.164 131.957 306.543 131.872C305.306 131.786 304.026 131.701 302.703 131.616C301.38 131.53 300.1 131.594 298.863 131.808C296.73 131.978 295.087 131.658 293.935 130.848C292.783 129.994 292.1 128.501 291.887 126.368C291.802 124.874 291.844 123.402 292.015 121.952C292.228 120.501 292.484 119.05 292.783 117.6C293.295 114.997 293.594 112.416 293.679 109.856C293.764 107.253 293.743 104.672 293.615 102.112C293.444 97.2051 292.42 92.4691 290.543 87.9038C290.159 87.0078 289.946 86.0691 289.903 85.0878C289.903 84.0638 290.052 83.1465 290.351 82.3358C290.692 81.5251 291.204 80.8638 291.887 80.3518C292.57 79.7971 293.423 79.5198 294.447 79.5198C297.263 79.7758 299.994 79.6905 302.639 79.2638C305.327 78.8371 308.015 78.2185 310.703 77.4078C312.154 76.5971 313.519 76.2345 314.799 76.3198C316.122 76.4051 317.252 76.7678 318.191 77.4078C319.172 78.0478 319.962 78.9011 320.559 79.9678C321.199 81.0345 321.583 82.1438 321.711 83.2958C321.882 84.4478 321.754 85.5998 321.327 86.7518C320.943 87.8611 320.218 88.7785 319.151 89.5038C318.426 90.0158 317.679 90.3571 316.911 90.5278C316.143 90.6985 315.354 90.7838 314.543 90.7838C313.732 90.7411 312.922 90.6558 312.111 90.5278C311.343 90.3571 310.596 90.1865 309.871 90.0158C307.738 89.5465 306.244 89.6105 305.391 90.2078C304.58 90.7625 304.154 92.1278 304.111 94.3038C304.111 96.0958 304.196 97.5465 304.367 98.6558C304.58 99.7651 304.964 100.554 305.519 101.024C306.116 101.45 306.927 101.6 307.951 101.472C308.975 101.301 310.319 100.853 311.983 100.128Z" fill="#FBAE3C"/>
<defs>
<filter id="filter0_f_15_66" x="0" y="0" width="400" height="210" filterUnits="userSpaceOnUse" color-interpolation-filters="sRGB">
<feFlood flood-opacity="0" result="BackgroundImageFix"/>
<feBlend mode="normal" in="SourceGraphic" in2="BackgroundImageFix" result="shape"/>
<feGaussianBlur stdDeviation="32" result="effect1_foregroundBlur_15_66"/>
</filter>
</defs>
</svg>
